<svg width="18" height="14" viewBox="0 0 18 14" fill="none" xmlns="http://www.w3.org/2000/svg">
<path d="M15.667 0.333H2.333C1.417 0.333 0.675 1.083 0.675 2L0.667 12C0.667 12.917 1.417 13.667 2.333 13.667H15.667C16.583 13.667 17.333 12.917 17.333 12V2C17.333 1.083 16.583 0.333 15.667 0.333ZM15.333 3.875L9.442 7.559C9.3091 7.64084 9.15608 7.68417 9 7.68417C8.84392 7.68417 8.6909 7.64084 8.558 7.559L2.667 3.875C2.5846 3.82751 2.51262 3.7639 2.45535 3.68798C2.39807 3.61205 2.35668 3.52537 2.33365 3.4331C2.31061 3.34082 2.3064 3.24486 2.32127 3.15092C2.33614 3.05699 2.36978 2.96701 2.42018 2.88636C2.47059 2.80572 2.53672 2.73605 2.61464 2.68152C2.69256 2.627 2.78067 2.58873 2.87371 2.569C2.96674 2.54927 3.0628 2.54849 3.15614 2.5667C3.24949 2.58492 3.3382 2.62175 3.417 2.675L9 6.167L14.583 2.675C14.6618 2.62175 14.7505 2.58492 14.8439 2.5667C14.9372 2.54849 15.0333 2.54927 15.1263 2.569C15.2193 2.58873 15.3074 2.627 15.3854 2.68152C15.4633 2.73605 15.5294 2.80572 15.5798 2.88636C15.6302 2.96701 15.6639 3.05699 15.6787 3.15092C15.6936 3.24486 15.6894 3.34082 15.6664 3.4331C15.6433 3.52537 15.6019 3.61205 15.5447 3.68798C15.4874 3.7639 15.4154 3.82751 15.333 3.875V3.875Z" fill="white"/>
</svg>
