<svg width="239" height="23" viewBox="0 0 239 23" fill="none" xmlns="http://www.w3.org/2000/svg">
<path d="M10.2 22.3C7.18 22.3 4.86 21.39 3.24 19.57C1.62 17.75 0.81 15.22 0.81 11.98C0.81 9.6 1.24 7.52 2.1 5.74C2.98 3.94 4.22 2.55 5.82 1.57C7.44 0.589999 9.32 0.0999994 11.46 0.0999994C13.8 0.0999994 16.02 0.69 18.12 1.87L17.64 7.69H14.61L13.92 4.39C13.56 4.21 13.05 4.03 12.39 3.85C11.75 3.67 11.06 3.58 10.32 3.58C8.54 3.58 7.29 4.14 6.57 5.26C5.87 6.36 5.52 8.03 5.52 10.27C5.52 15.89 7.52 18.7 11.52 18.7C13.08 18.7 14.41 18.48 15.51 18.04C16.61 17.6 17.19 17.37 17.25 17.35L18.15 20.32C15.43 21.64 12.78 22.3 10.2 22.3ZM38.0358 19.24V22H29.6358V19.3L30.7158 19.06C30.9958 19 31.1958 18.93 31.3158 18.85C31.4558 18.75 31.5258 18.62 31.5258 18.46C31.5258 18.34 31.4758 18.11 31.3758 17.77L30.6858 15.61H23.9358L23.2758 17.68C23.1558 18 23.0958 18.23 23.0958 18.37C23.0958 18.71 23.3858 18.94 23.9658 19.06L24.9858 19.3V22H17.3958V19.24L18.0258 19.06C18.4458 18.96 18.7358 18.84 18.8958 18.7C19.0758 18.54 19.2558 18.2 19.4358 17.68L25.5258 0.399999H29.9658L35.9958 17.68C36.1758 18.2 36.3458 18.53 36.5058 18.67C36.6658 18.81 36.9758 18.94 37.4358 19.06L38.0358 19.24ZM29.6358 12.43L27.4758 5.71L27.2958 4.87L27.0858 5.71L24.9558 12.43H29.6358ZM56.558 19C56.978 19 57.268 18.92 57.428 18.76L56.918 21.76C56.758 21.94 56.578 22.07 56.378 22.15C56.198 22.25 55.908 22.3 55.508 22.3C53.908 22.3 52.038 21.56 49.898 20.08C47.938 21.58 45.838 22.33 43.598 22.33C42.298 22.33 41.178 22.09 40.238 21.61C39.298 21.11 38.588 20.44 38.108 19.6C37.628 18.74 37.388 17.79 37.388 16.75C37.388 15.37 37.768 14.19 38.528 13.21C39.288 12.23 40.298 11.28 41.558 10.36C40.658 8.52 40.208 6.92 40.208 5.56C40.208 4.54 40.438 3.62 40.898 2.8C41.378 1.96 42.088 1.3 43.028 0.819999C43.968 0.339999 45.118 0.0999994 46.478 0.0999994C47.558 0.0999994 48.608 0.259999 49.628 0.579999C50.668 0.899999 51.538 1.24 52.238 1.6L51.698 5.98H49.028L48.728 3.55C48.448 3.37 48.098 3.21 47.678 3.07C47.258 2.91 46.828 2.83 46.388 2.83C44.848 2.83 44.078 3.64 44.078 5.26C44.078 7.5 45.578 10.27 48.578 13.57C49.158 14.23 49.838 14.93 50.618 15.67C51.518 14.63 52.388 13.36 53.228 11.86L55.688 13.03C54.668 14.77 53.668 16.22 52.688 17.38C54.168 18.46 55.458 19 56.558 19ZM44.798 18.94C45.738 18.94 46.678 18.69 47.618 18.19C45.918 16.67 44.388 14.9 43.028 12.88C42.128 13.72 41.678 14.7 41.678 15.82C41.678 16.76 41.948 17.52 42.488 18.1C43.048 18.66 43.818 18.94 44.798 18.94ZM66.6689 22.3C63.5289 22.3 61.1589 21.38 59.5589 19.54C57.9789 17.68 57.1889 15.13 57.1889 11.89C57.1889 9.45 57.6289 7.35 58.5089 5.59C59.4089 3.81 60.6789 2.45 62.3189 1.51C63.9589 0.569999 65.8989 0.0999994 68.1389 0.0999994C71.2789 0.0999994 73.6389 1.03 75.2189 2.89C76.8189 4.73 77.6189 7.27 77.6189 10.51C77.5989 12.87 77.1389 14.94 76.2389 16.72C75.3589 18.48 74.0989 19.85 72.4589 20.83C70.8189 21.81 68.8889 22.3 66.6689 22.3ZM67.8989 18.82C69.5789 18.82 70.8389 18.29 71.6789 17.23C72.5189 16.15 72.9389 14.35 72.9389 11.83C72.9389 9.01 72.3989 6.93 71.3189 5.59C70.2389 4.25 68.7689 3.58 66.9089 3.58C65.2289 3.58 63.9589 4.11 63.0989 5.17C62.2589 6.23 61.8389 8.03 61.8389 10.57C61.8389 13.39 62.3789 15.47 63.4589 16.81C64.5589 18.15 66.0389 18.82 67.8989 18.82ZM93.2665 0.399999C96.7065 0.399999 99.2165 1.25 100.796 2.95C102.396 4.63 103.196 7.14 103.196 10.48C103.196 12.66 102.796 14.63 101.996 16.39C101.216 18.13 100.076 19.5 98.5765 20.5C97.0765 21.5 95.3065 22 93.2665 22H83.9365V19.33L85.0165 18.97C85.3765 18.85 85.6065 18.72 85.7065 18.58C85.8265 18.44 85.8865 18.17 85.8865 17.77V4.54C85.8865 4.14 85.8265 3.86 85.7065 3.7C85.6065 3.54 85.3765 3.42 85.0165 3.34L83.9365 3.07V0.399999H93.2665ZM93.0265 18.64C94.3065 18.64 95.3465 18.41 96.1465 17.95C96.9465 17.47 97.5365 16.69 97.9165 15.61C98.3165 14.53 98.5165 13.07 98.5165 11.23C98.5165 8.63 98.0665 6.74 97.1665 5.56C96.2865 4.36 94.9065 3.76 93.0265 3.76H90.2365V18.64H93.0265ZM103.823 19.33L104.933 18.97C105.293 18.87 105.523 18.75 105.623 18.61C105.743 18.45 105.803 18.19 105.803 17.83V4.57C105.803 4.21 105.743 3.96 105.623 3.82C105.523 3.66 105.293 3.53 104.933 3.43L103.823 3.07V0.399999H112.133V3.07L111.023 3.43C110.663 3.53 110.423 3.66 110.303 3.82C110.203 3.96 110.153 4.21 110.153 4.57V17.83C110.153 18.19 110.203 18.45 110.303 18.61C110.423 18.75 110.663 18.87 111.023 18.97L112.133 19.33V22H103.823V19.33ZM119.942 22.3C118.342 22.3 116.912 22.14 115.652 21.82C114.412 21.5 113.492 21.2 112.892 20.92L113.252 15.67H116.672L117.032 18.22C117.432 18.44 117.962 18.64 118.622 18.82C119.302 18.98 120.072 19.06 120.932 19.06C121.712 19.06 122.392 18.84 122.972 18.4C123.552 17.94 123.842 17.31 123.842 16.51C123.842 15.87 123.672 15.38 123.332 15.04C122.992 14.68 122.372 14.3 121.472 13.9L118.112 12.46C116.492 11.76 115.272 10.95 114.452 10.03C113.652 9.09 113.252 7.91 113.252 6.49C113.252 5.31 113.572 4.24 114.212 3.28C114.872 2.32 115.792 1.56 116.972 0.999999C118.152 0.419999 119.512 0.129999 121.052 0.129999C122.252 0.129999 123.332 0.219999 124.292 0.399999C125.272 0.559999 126.372 0.78 127.592 1.06L127.172 6.01H123.902L123.452 3.73C123.152 3.59 122.762 3.48 122.282 3.4C121.822 3.3 121.372 3.25 120.932 3.25C119.872 3.25 119.072 3.47 118.532 3.91C118.012 4.33 117.752 4.93 117.752 5.71C117.752 6.43 117.962 7.01 118.382 7.45C118.822 7.89 119.552 8.34 120.572 8.8L123.692 10.15C125.312 10.87 126.472 11.66 127.172 12.52C127.892 13.36 128.252 14.37 128.252 15.55C128.252 16.89 127.902 18.07 127.202 19.09C126.502 20.11 125.522 20.9 124.262 21.46C123.022 22.02 121.582 22.3 119.942 22.3ZM137.946 22.3C134.926 22.3 132.606 21.39 130.986 19.57C129.366 17.75 128.556 15.22 128.556 11.98C128.556 9.6 128.986 7.52 129.846 5.74C130.726 3.94 131.966 2.55 133.566 1.57C135.186 0.589999 137.066 0.0999994 139.206 0.0999994C141.546 0.0999994 143.766 0.69 145.866 1.87L145.386 7.69H142.356L141.666 4.39C141.306 4.21 140.796 4.03 140.136 3.85C139.496 3.67 138.806 3.58 138.066 3.58C136.286 3.58 135.036 4.14 134.316 5.26C133.616 6.36 133.266 8.03 133.266 10.27C133.266 15.89 135.266 18.7 139.266 18.7C140.826 18.7 142.156 18.48 143.256 18.04C144.356 17.6 144.936 17.37 144.996 17.35L145.896 20.32C143.176 21.64 140.526 22.3 137.946 22.3ZM155.462 22.3C152.322 22.3 149.952 21.38 148.352 19.54C146.772 17.68 145.982 15.13 145.982 11.89C145.982 9.45 146.422 7.35 147.302 5.59C148.202 3.81 149.472 2.45 151.112 1.51C152.752 0.569999 154.692 0.0999994 156.932 0.0999994C160.072 0.0999994 162.432 1.03 164.012 2.89C165.612 4.73 166.412 7.27 166.412 10.51C166.392 12.87 165.932 14.94 165.032 16.72C164.152 18.48 162.892 19.85 161.252 20.83C159.612 21.81 157.682 22.3 155.462 22.3ZM156.692 18.82C158.372 18.82 159.632 18.29 160.472 17.23C161.312 16.15 161.732 14.35 161.732 11.83C161.732 9.01 161.192 6.93 160.112 5.59C159.032 4.25 157.562 3.58 155.702 3.58C154.022 3.58 152.752 4.11 151.892 5.17C151.052 6.23 150.632 8.03 150.632 10.57C150.632 13.39 151.172 15.47 152.252 16.81C153.352 18.15 154.832 18.82 156.692 18.82ZM186.169 0.399999V3.07L185.569 3.28C185.469 3.3 185.289 3.35 185.029 3.43C184.789 3.51 184.609 3.63 184.489 3.79C184.369 3.95 184.249 4.21 184.129 4.57L178.279 22H173.869L167.539 4.45C167.379 4.05 167.229 3.79 167.089 3.67C166.969 3.53 166.699 3.4 166.279 3.28L165.619 3.07V0.399999H174.529V3.04L172.639 3.37C172.479 3.39 172.359 3.46 172.279 3.58C172.219 3.68 172.189 3.79 172.189 3.91C172.189 4.01 172.239 4.23 172.339 4.57L176.179 15.52L176.569 17.14L176.749 15.52L180.259 4.54C180.359 4.2 180.409 3.99 180.409 3.91C180.409 3.79 180.359 3.68 180.259 3.58C180.179 3.46 180.059 3.39 179.899 3.37L178.099 3.04V0.399999H186.169ZM201.697 22H185.767V19.33L186.847 19.06C187.207 18.98 187.437 18.87 187.537 18.73C187.657 18.57 187.717 18.3 187.717 17.92V4.45C187.717 4.03 187.657 3.74 187.537 3.58C187.437 3.42 187.207 3.31 186.847 3.25L185.767 3.07V0.399999H201.577L201.367 6.58H198.577L198.367 4.54C198.327 4.2 198.217 3.97 198.037 3.85C197.877 3.73 197.607 3.67 197.227 3.67H192.067V9.22H198.277V12.55H192.067V18.73H197.197C197.597 18.73 197.877 18.67 198.037 18.55C198.217 18.43 198.317 18.2 198.337 17.86L198.577 15.64H201.487L201.697 22ZM220.184 18.76C220.684 18.76 221.094 18.68 221.414 18.52L221.054 21.61C220.174 22.07 219.354 22.3 218.594 22.3C217.694 22.3 216.854 22.04 216.074 21.52C215.314 21 214.654 20.27 214.094 19.33L211.154 14.44C210.874 13.94 210.564 13.59 210.224 13.39C209.884 13.17 209.464 13.06 208.964 13.06V17.86C208.964 18.26 209.024 18.54 209.144 18.7C209.264 18.84 209.504 18.94 209.864 19L211.484 19.33V22H202.694V19.33L203.774 18.97C204.154 18.85 204.394 18.73 204.494 18.61C204.594 18.47 204.644 18.21 204.644 17.83V4.57C204.644 4.19 204.594 3.94 204.494 3.82C204.394 3.68 204.154 3.55 203.774 3.43L202.694 3.07V0.399999H211.364C213.844 0.399999 215.694 0.859999 216.914 1.78C218.154 2.7 218.774 4.11 218.774 6.01C218.774 7.59 218.274 8.92 217.274 10C216.294 11.08 215.004 11.73 213.404 11.95C213.844 12.09 214.254 12.36 214.634 12.76C215.034 13.14 215.464 13.67 215.924 14.35L217.784 17.2C218.164 17.78 218.524 18.19 218.864 18.43C219.204 18.65 219.644 18.76 220.184 18.76ZM211.124 9.88C212.164 9.88 212.934 9.63 213.434 9.13C213.934 8.63 214.184 7.85 214.184 6.79C214.184 5.77 213.934 5 213.434 4.48C212.954 3.94 212.174 3.67 211.094 3.67H208.964V9.88H211.124ZM238.777 0.399999V3.07L237.907 3.31C237.487 3.41 237.187 3.54 237.007 3.7C236.847 3.84 236.647 4.13 236.407 4.57L231.187 14.8V17.83C231.187 18.23 231.237 18.5 231.337 18.64C231.457 18.76 231.697 18.87 232.057 18.97L233.557 19.33V22H224.497V19.33L225.997 18.97C226.357 18.87 226.587 18.76 226.687 18.64C226.807 18.5 226.867 18.23 226.867 17.83V14.77L221.557 4.57C221.337 4.15 221.127 3.86 220.927 3.7C220.747 3.52 220.497 3.39 220.177 3.31L219.217 3.07V0.399999H228.007V3.04L226.957 3.37C226.637 3.43 226.437 3.51 226.357 3.61C226.277 3.69 226.237 3.8 226.237 3.94C226.237 4.16 226.287 4.37 226.387 4.57L229.417 10.69L232.417 4.57C232.517 4.31 232.567 4.09 232.567 3.91C232.567 3.77 232.517 3.66 232.417 3.58C232.317 3.5 232.107 3.42 231.787 3.34L230.647 3.04V0.399999H238.777Z" fill="white"/>
</svg>
